# xmcd
#
# Track frame offsets:
#	150
#	15688
#	21320
#	34728
#	55604
#	81515
#	96270
#	107231
#	129227
#	138149
#	154425
#	169171
#	176647
#	187341
#	197304
#	217250
#	223796
#	237115
#	263133
#	276260
#
# Disc length: 3827 seconds
#
# Revision: 1
# Processed by: cddbd v1.5.1PL0 Copyright (c) Steve Scherf et al.
# Submitted via: audiograbber 1.83.01
#
DISCID=290ef114
DTITLE=Artiste variés - Fanfares and Bandas [CD4)
DYEAR=2005
DGENRE=Folklore
TTITLE0=Pistons flingueurs - Snooze
TTITLE1=No Water Please - Jungle Bell
TTITLE2=Fanfares Grégoire les Tours - Honneur aux anciens
TTITLE3=Boban Markovic Orkestar - Magja
TTITLE4=L'occidentale de fanfare - Maa'Rif
TTITLE5=Famous Brass Bang - Honour
TTITLE6=Les sans soucis - Pinnochio
TTITLE7=La belle image - Los frenos no funcionan
TTITLE8=Lous Brandalous - Mama Yo Quiero
TTITLE9=Banda de Bessines - Los Miuras
TTITLE10=Les sans soucis - Da Villa Mura
TTITLE11=Les sans soucis - El Relicario
TTITLE12=Banda de Santander - El Acrobata
TTITLE13=Los incognitos - Mexicali
TTITLE14=Los incognitos - Toque bandarillas en "er" mundo
TTITLE15=Les sans soucis - Saludo a Sevilla
TTITLE16=Les acousmates - Bananas
TTITLE17=La belle image - Origen - Bolivia
TTITLE18=La belle image - Ecos espagnoles
TTITLE19=Les sans soucis - Le lion
EXTD=
EXTT0=
EXTT1=
EXTT2=
EXTT3=
EXTT4=
EXTT5=
EXTT6=
EXTT7=
EXTT8=
EXTT9=
EXTT10=
EXTT11=
EXTT12=
EXTT13=
EXTT14=
EXTT15=
EXTT16=
EXTT17=
EXTT18=
EXTT19=
PLAYORDER=
